<?xml version="1.0" standalone="no"?>
<!DOCTYPE svg PUBLIC "-//W3C//DTD SVG 20010904//EN"
 "http://www.w3.org/TR/2001/REC-SVG-20010904/DTD/svg10.dtd">
<svg version="1.0" xmlns="http://www.w3.org/2000/svg"
 width="204.000000pt" height="204.000000pt" viewBox="0 0 204.000000 204.000000"
 preserveAspectRatio="xMidYMid meet">

<g transform="translate(0.000000,204.000000) scale(0.100000,-0.100000)"
fill="#000000" stroke="none">
<path d="M1 2024 c0 -11 3 -14 6 -6 3 7 2 16 -1 19 -3 4 -6 -2 -5 -13z"/>
<path d="M604 1995 c-156 -162 -533 -1029 -580 -1333 -4 -23 -11 -45 -15 -48
-13 -7 -11 -194 1 -194 6 0 10 -8 10 -17 0 -32 57 -140 97 -184 68 -75 240
-169 315 -171 16 -1 31 -5 34 -9 2 -4 33 -12 67 -16 44 -6 -23 -9 -238 -13
-165 -3 161 -5 725 -5 742 0 875 1 480 5 -300 3 -538 8 -530 11 8 4 60 12 115
19 55 6 111 14 125 17 14 3 30 7 35 8 192 46 315 88 450 154 96 48 131 71 176
118 283 292 43 974 -511 1454 -100 87 -217 168 -304 210 l-80 39 -165 0 -164
0 -43 -45z m346 -104 c138 -52 255 -140 411 -308 248 -267 378 -529 395 -798
15 -224 -72 -376 -269 -474 -153 -76 -591 -171 -786 -171 -221 0 -392 84 -461
225 -35 73 -40 227 -11 349 23 97 301 804 386 981 59 125 104 175 181 205 56
21 78 20 154 -9z"/>
<path d="M849 1706 c-59 -40 -107 -125 -230 -406 -199 -454 -223 -529 -223
-690 0 -131 14 -174 78 -236 64 -62 122 -84 220 -84 68 1 225 21 256 34 8 3
31 8 50 11 53 7 133 24 185 39 6 2 24 6 40 10 175 43 300 146 346 285 26 78
22 136 -17 254 -37 111 -164 360 -249 487 -78 118 -219 267 -282 299 -59 29
-128 28 -174 -3z m175 -184 c115 -87 326 -408 371 -566 23 -79 17 -205 -12
-261 -78 -151 -330 -255 -613 -255 -123 1 -168 12 -202 49 -75 84 -43 241 133
657 112 265 164 366 201 392 45 30 65 28 122 -16z"/>
<path d="M907 1248 c-35 -26 -177 -487 -177 -575 0 -128 100 -124 354 17 213
118 229 165 116 347 -61 99 -143 191 -187 210 -40 16 -84 17 -106 1z m135
-167 c45 -40 99 -132 100 -172 1 -27 -7 -40 -46 -76 -59 -53 -164 -106 -202
-101 -27 3 -29 6 -32 51 -5 74 46 246 89 301 26 34 51 33 91 -3z"/>
</g>
</svg>
